# xmcd
#
# Track frame offsets: 
#        150
#        12938
#        26391
#        37986
#        46800
#        59610
#        71470
#        83443
#        96177
#        107880
#        120420
#        132501
#        141450
#        154687
#
# Disc length: 2228 seconds
#
# Revision: 0
# Processed by: cddbd v1.5.2PL0 Copyright (c) Steve Scherf et al.
# Submitted via: ExactAudioCopyFreeDBPlugin 1.0
#
DISCID=b308b20e
DTITLE=Jackson do Pandeiro - Chiclete Com Banana [CD2)
DYEAR=2008
DGENRE=Latin
TTITLE0=Chiclete com Banana
TTITLE1=Forró do Surubim
TTITLE2=Lágrima
TTITLE3=De Araraê
TTITLE4=Ogum de Malê
TTITLE5=Saravá o Endá
TTITLE6=Casaca de Couro
TTITLE7=Lamento Cego
TTITLE8=Valsa Neném
TTITLE9=Mané Gardino
TTITLE10=Acorrentado
TTITLE11=Leva Teu Gererê
TTITLE12=Vou Buscar Maria
TTITLE13=Penerou Gavião
EXTD=
EXTT0=
EXTT1=
EXTT2=
EXTT3=
EXTT4=
EXTT5=
EXTT6=
EXTT7=
EXTT8=
EXTT9=
EXTT10=
EXTT11=
EXTT12=
EXTT13=
PLAYORDER=
